Coordinates
version=1
nRows=10
nColumns=40
inDegrees=yes

Units are S.I. units (second, meters, Newtons, ...)
Angles are in degrees.

endheader
time	pelvis_tilt	pelvis_list	pelvis_rotation	pelvis_tx	pelvis_ty	pelvis_tz	hip_flexion_r	hip_adduction_r	hip_rotation_r	knee_angle_r	knee_angle_r_beta	ankle_angle_r	subtalar_angle_r	mtp_angle_r	hip_flexion_l	hip_adduction_l	hip_rotation_l	knee_angle_l	knee_angle_l_beta	ankle_angle_l	subtalar_angle_l	mtp_angle_l	lumbar_extension	lumbar_bending	lumbar_rotation	arm_flex_r	arm_add_r	arm_rot_r	elbow_flex_r	pro_sup_r	wrist_flex_r	wrist_dev_r	arm_flex_l	arm_add_l	arm_rot_l	elbow_flex_l	pro_sup_l	wrist_flex_l	wrist_dev_l
     42.28614286	     -2.85293343	     -4.26346818	      4.99995047	      1.06641042	      0.93413904	      0.48210557	      7.70680033	      2.78905743	    -18.56399361	     11.94709402	     11.94709402	      9.61540274	      3.46965537	     -8.02003892	     32.16701785	    -12.94942101	     -0.35793309	     42.61172423	     42.61172423	      9.23049551	    -16.41683786	      9.85430779	     -9.70520186	      5.68857154	      3.37494773	     26.92578977	    -19.56694089	     -4.00850283	     69.28853498	     45.04854431	      0.00000000	      0.00000000	     -0.34177649	     -6.51325577	     -7.92631978	     27.58612545	     46.06601192	      0.00000000	      0.00000000
     42.29978571	     -2.98606187	     -4.35904645	      5.23405557	      1.06527644	      0.93385565	      0.48188050	      7.29010986	      2.95468883	    -18.90225172	     11.44238955	     11.44238955	      9.60193698	      3.83687896	     -8.52895480	     32.07783195	    -12.80628073	     -0.50705938	     38.65365323	     38.65365323	      8.51758630	    -15.96997239	      8.40005792	     -9.79012320	      5.87275970	      3.91399408	     27.19355316	    -20.37147266	     -4.06636668	     73.50571666	     44.93337752	      0.00000000	      0.00000000	     -1.23488607	     -6.36214230	     -6.65943970	     27.29801625	     45.82794906	      0.00000000	      0.00000000
     42.31342857	     -3.19680563	     -4.35942310	      5.39988184	      1.06408941	      0.93347704	      0.48158645	      7.08288985	      2.99563150	    -18.92982381	     11.19786591	     11.19786591	      9.78021773	      3.77511040	     -8.60990310	     32.00677256	    -12.56219302	     -0.76105628	     34.77481036	     34.77481036	      8.42160339	    -14.97026023	      8.83624339	     -9.68111249	      5.86915085	      4.04445840	     28.59699204	    -20.41484780	     -4.31128665	     74.63033703	     44.91442646	      0.00000000	      0.00000000	     -2.20561537	     -6.14222039	     -6.41228768	     26.88002024	     45.76942185	      0.00000000	      0.00000000
     42.32707143	     -3.34493964	     -4.41058695	      5.58130628	      1.06295688	      0.93312189	      0.48111231	      6.77732900	      3.09592046	    -19.02115452	     10.88457135	     10.88457135	      9.92606166	      3.78307055	     -8.69984909	     31.80403287	    -12.34617986	     -1.04785679	     30.91821608	     30.91821608	      8.19323253	    -13.76831668	      9.17359819	     -9.69203627	      5.94908592	      3.97254273	     29.90938111	    -20.31123938	     -4.45256044	     76.23662197	     44.87671365	      0.00000000	      0.00000000	     -3.24660174	     -5.96338892	     -6.08448304	     26.53535314	     45.69464534	      0.00000000	      0.00000000
     42.34071429	     -3.55123750	     -4.49496779	      5.78150392	      1.06193096	      0.93255646	      0.48044430	      6.54850452	      3.20250098	    -19.10862944	     10.61639108	     10.61639108	     10.09987690	      3.79270802	     -8.80722552	     31.67801912	    -12.11779195	     -1.30980814	     27.31714100	     27.31714100	      7.94420660	    -12.32194277	      9.53529869	     -9.53734511	      6.05465081	      4.02309354	     31.15409176	    -20.32412919	     -4.55528568	     77.70051723	     44.84134375	      0.00000000	      0.00000000	     -4.16485071	     -5.71750725	     -5.80765026	     26.31824593	     45.62972908	      0.00000000	      0.00000000
     42.35435714	     -3.60471683	     -4.59358334	      5.96566358	      1.06108657	      0.93217151	      0.47967499	      6.11449616	      3.34542515	    -19.20918893	     10.29153048	     10.29153048	     10.26133556	      3.87853687	     -8.93983117	     31.38920635	    -11.94065992	     -1.73868695	     24.03548472	     24.03548472	      7.54324766	    -10.69198124	      9.69639871	     -9.64240128	      6.20682021	      3.93617023	     32.20789859	    -20.25878494	     -4.58701986	     79.73179330	     44.78770175	      0.00000000	      0.00000000	     -5.21999729	     -5.58819560	     -5.33364846	     26.23779592	     45.52686249	      0.00000000	      0.00000000
     42.36800000	     -3.69655483	     -4.70756531	      6.15131910	      1.06034288	      0.93167308	      0.47872987	      5.72318873	      3.49270625	    -19.32721886	      9.97822275	      9.97822275	     10.43230488	      3.95409572	     -9.08488978	     31.20274641	    -11.76062298	     -2.25980430	     21.23810527	     21.23810527	      7.10788369	     -8.98870859	      9.79162813	     -9.65327307	      6.35087658	      3.96658656	     33.13025157	    -20.32450423	     -4.65106461	     81.67199828	     44.74023964	      0.00000000	      0.00000000	     -6.17115999	     -5.44908234	     -4.72898245	     26.31759597	     45.40344564	      0.00000000	      0.00000000
     42.38164286	     -3.97121998	     -5.01369831	      6.36501623	      1.05952492	      0.93066560	      0.47759812	      5.65045655	      3.77562073	    -19.48164127	      9.85423971	      9.85423971	     10.64584069	      3.92625160	     -9.19391726	     31.52687385	    -11.66297295	     -2.42852729	     19.33065114	     19.33065114	      6.74099842	     -7.83684778	     10.12779584	     -9.35048630	      6.71599468	      4.14664912	     34.23873734	    -20.64867107	     -4.86858935	     82.43659974	     44.72957583	      0.00000000	      0.00000000	     -6.91836487	     -5.19926766	     -4.57792880	     26.14867468	     45.36406042	      0.00000000	      0.00000000
     42.39528571	     -3.98434181	     -4.92423573	      6.52167056	      1.05916778	      0.93049262	      0.47638693	      5.11873348	      3.70109047	    -19.52502564	      9.53599037	      9.53599037	     10.84602282	      3.99055119	     -9.24544615	     31.12747737	    -11.27968263	     -3.25979096	     17.36990367	     17.36990367	      6.25631255	     -6.25144643	     10.35766470	     -9.41967713	      6.57091020	      3.97873078	     34.96852550	    -20.27261626	     -4.81582552	     83.94212453	     44.68721200	      0.00000000	      0.00000000	     -7.62323360	     -5.10099395	     -4.22472350	     26.10561122	     45.29017999	      0.00000000	      0.00000000
     42.40892857	     -3.94898073	     -5.06241075	      6.69232184	      1.05909213	      0.93002302	      0.47503891	      4.47139878	      3.88765402	    -19.68097398	      9.07574193	      9.07574193	     10.99526005	      4.29500241	     -9.42457212	     31.07649558	    -11.19673658	     -4.19104059	     16.56477286	     16.56477286	      5.63027618	     -4.66081986	      9.02626649	     -9.52575602	      6.73136853	      4.38216550	     34.95835388	    -20.76956597	     -5.15706489	     86.91911864	     44.64735488	      0.00000000	      0.00000000	     -8.64782077	     -5.37871241	     -1.74289020	     27.30689998	     44.85918197	      0.00000000	      0.00000000
